# xmcd
#
# Track frame offsets:
# 182
# 14657
# 26172
# 39850
# 54742
# 66797
# 83832
# 93497
# 114252
# 127595
# 140842
# 142542
# 155685
# 167667
# 181670
# 194837
# 209707
# 221317
# 228875
# 240432
# 256300
# 270737
#
# Disc length: 3957 seconds
#
# Revision: 2
# Processed by: cddbd v1.4PL0 Copyright (c) Steve Scherf et al.
# Submitted via: Axialis_AX_CDPlayer 2.6
#
DISCID=300f7316
DTITLE=Michael Nesmith - Listen To The Band
DYEAR=1900
DGENRE=
TTITLE0=Silver Moon
TTITLE1=Listen To The Band
TTITLE2=Different Drum
TTITLE3=Some Of Shelley's Blues
TTITLE4=Mama Nantucket
TTITLE5=Harmony Constant
TTITLE6=Grand Ennui
TTITLE7=Bonaparte's Retreat
TTITLE8=I've Just Begun To Care (Propinquity)
TTITLE9=Lady Of The Valley
TTITLE10=First National Rag
TTITLE11=The Keys To the Car
TTITLE12=Two Different Roads
TTITLE13=Nevada Fighter
TTITLE14=I Fall To Pieces
TTITLE15=Rainmaker
TTITLE16=Calico Girlfriend
TTITLE17=Nine Times Blue
TTITLE18=Little Red River
TTITLE19=Conversations
TTITLE20=Joanne
TTITLE21=Beyond The Blue Horizon
EXTD=
EXTT0=
EXTT1=
EXTT2=
EXTT3=
EXTT4=
EXTT5=
EXTT6=
EXTT7=
EXTT8=
EXTT9=
EXTT10=
EXTT11=
EXTT12=
EXTT13=
EXTT14=
EXTT15=
EXTT16=
EXTT17=
EXTT18=
EXTT19=
EXTT20=
EXTT21=
PLAYORDER=
